# xmcd
#
# Track frame offsets: 
#        150
#        12385
#        23752
#        47512
#        60332
#        77630
#        92472
#        111705
#        133295
#        146740
#        160935
#        176587
#        191342
#        207417
#
# Disc length: 2954 seconds
#
# Revision: 2
# Processed by: cddbd v1.5.2PL0 Copyright (c) Steve Scherf et al.
# Submitted via: ExactAudioCopy v0.95b4
#
DISCID=bd0b880e
DTITLE=Alabama and The Judds - The Heart Of Country Music
DYEAR=1991
DGENRE=Country
TTITLE0=Rockin' With The Rhythm Of The Rain
TTITLE1=Lovin' Man
TTITLE2=Dixieland Delight
TTITLE3=My Baby's Gone
TTITLE4=River Roll On
TTITLE5=Alabama Sky
TTITLE6=Grandpa (Tell Me 'Bout the Good Old Days)
TTITLE7=Take Me Down
TTITLE8=Bye Bye Baby Blues
TTITLE9=Old Flame
TTITLE10=Why Not Me
TTITLE11=Love In The First Degree
TTITLE12=Feels So Right
TTITLE13=Had A Dream (For The Heart)
EXTD=
EXTT0=The Judds
EXTT1=Alabama
EXTT2=Alabama
EXTT3=The Judds
EXTT4=The Judds
EXTT5=Alabama
EXTT6=The Judds
EXTT7=Alabama
EXTT8=The Judds
EXTT9=Alabama
EXTT10=The Judds
EXTT11=Alabama
EXTT12=Alabama
EXTT13=The Judds
PLAYORDER=
